v -3.436917782 2.90034771 3.099999905
vn 0.975479126 0.07783798873 0.2058681548
v -3.17413497 -3.174135447 -3.099999905
vn -0.7174885273 -0.6857382655 -0.1223651543
v 2.661221266 -3.602768898 3.099999905
vn 0.6062524915 -0.772821188 0.1876306981
v 3.546930075 -2.751280069 3.099999905
vn 0.7733426094 -0.5998651385 0.2051903605
v -0.6303332448 4.429323673 3.099999905
vn -0.09552726895 0.9744223952 0.2034096569
v -4.468982697 -0.4224431217 -3.099999905
vn -0.9905701876 -0.01155192964 -0.1365182847
v -0.9440432191 4.384119987 -3.099999905
vn -0.2061226666 0.96237427 -0.1770572364
v -4.31066227 -1.252363563 3.099999905
vn -0.942595005 -0.2680227757 0.1991945803
v 1.601853609 -2.757561445 3.099999905
vn -0.553070724 0.8075128794 0.205026269
v -0.4993557334 -3.152810097 3.099999905
vn 0.1378608495 0.9687362909 0.2062629759
v 2.849999905 13.75 0.04312202334
vn -0.2915648818 0.9565506577 -0.0008899251698
v -2.724764824 1.669695258 -3.099999905
vn 0.8061836958 -0.5581043363 -0.1964367926
v -0.9136312604 3.055383682 -3.099999905
vn 0.2965390682 -0.9374299645 -0.1824544817
v -0.07524950057 3.188169003 3.099999905
vn 0.03734016046 -0.9692480564 0.243236348
v 0.9136312604 3.055383682 3.099999905
vn -0.2760926485 -0.9376323223 0.2112307996
v -0.843283236 3.082387447 3.099999905
vn 0.2661590576 -0.9435958266 0.1969422102
v 3.192112446 0.1504985243 3.099999905
vn -0.9794487357 -0.014755412 0.2011528909
v 3.055383682 0.9136309028 3.099999905
vn -0.9217960238 -0.2438344359 0.3013915122
v -3.011031151 17.87614441 -1.059108853
vn 0.9775876999 0.1242133006 0.1699802727
v 1.963428736 2.490963697 3.099999905
vn -0.5692093372 -0.784697175 0.2454608977
v 3.798667192 18.27808189 3.099999905
vn 0.154081881 0.9812357426 0.1159103438
v 2.724764824 1.669695258 3.099999905
vn -0.8206291795 -0.5574331284 0.1258413196
v 4.151397228 -1.681642771 3.099999905
vn 0.8910399675 -0.4106114805 0.1935098022
v 0.4930819869 -4.466762066 3.099999905
vn 0.09401905537 -0.9736546278 0.2077427655
v 2.490963936 -1.963428497 -3.099999905
vn -0.7149985433 0.6622332931 -0.2241074443
v 0.4993557334 -3.152810097 -3.099999905
vn -0.1263016611 0.9420154691 -0.310893476
v -4.448162556 17.72413063 -3.099999905
vn -0.9688454866 0.2474603057 -0.01008902304
v 3.500000238 8.25 -3.099999905
vn -0.4696079195 -0.6060864925 -0.6419715881
v 3.188168526 0.07524943352 -3.099999905
vn -0.9849652648 -0.02762609906 -0.1705290973
v 3.199999809 9.5 3.099999905
vn -0.2920905352 0.9346897602 0.202578932
v -3.199999809 9.5 3.099999905
vn 0.2919856012 0.9343539476 0.2042721957
v 2.530451298 13.50727558 3.099999905
vn -0.7389998436 0.6736467481 0.008903089911
v 2.338889837 13.10452461 3.099999905
vn -0.9528057575 0.2450113446 0.179250285
v 2.450831175 11.61726284 3.099999905
vn -0.7685596943 -0.6374720335 0.05427141115
v 2.887836695 17.28916931 3.099999905
vn -0.8732431531 0.02360242046 0.4867127836
v 3.277891159 18.17064285 3.099999905
vn -0.3696554005 0.9264008403 0.07166863233
v 0.422442764 -4.468982697 -3.099999905
vn 0.07774881274 -0.9844854474 -0.1573006362
v -0.8378208876 -4.394240856 -3.099999905
vn -0.2290857136 -0.9517946839 -0.2039768845
v 3.199999809 11.5 3.099999905
vn -0.8368821144 -0.2936650813 0.461940676
v 1.977087617 4.035617352 3.099999905
vn 0.4033893645 0.8572480083 0.3200044334
v 3.02634573 17.92042542 -1.022325397
vn -0.968016386 0.136711359 0.2103670537
v 2.899225712 17.28163719 -1.349804401
vn -0.9977509975 -0.00162814674 0.06701007485
v -2.490963936 -1.963428497 3.099999905
vn 0.7145907879 0.661855638 0.2265108824
v 1.455699921 -4.251587391 -3.099999905
vn 0.2950478196 -0.9080617428 -0.2972720563
v -1.601853609 -2.757561445 -3.099999905
vn 0.5566025972 0.8031309247 -0.2125423849
v -2.067146301 3.979778767 3.099999905
vn -0.4459434748 0.8845188618 0.1369701028
v -1.782759905 -4.119709492 3.099999905
vn -0.3826157153 -0.9152427316 0.1262376457
v -2.919686317 13.75 1.286224484
vn 0.9921347499 0.04148795828 -0.1180991977
v -2.450831175 11.61726284 3.099999905
vn 0.61546278 -0.7878699899 0.02159666084
v 2.892682552 13.75 1.356572509
vn -0.9949902892 0.04662822187 -0.08843132854
v 2.919686317 13.75 -1.290619493
vn -0.99281317 0.0469202809 0.1100930125
v -4.398406506 17.85945511 3.099999905
vn -0.8998116851 0.4359878302 0.01592143625
v -2.892682552 13.75 -1.360967398
vn 0.993662715 0.03741532564 0.105993174
v -2.910989761 17.59959984 1.326572537
vn 0.974411428 0.224485606 -0.01133738551
v -2.901778221 17.37208176 -1.345883846
vn 0.9972425103 0.03683970869 0.0644222796
v -3.055383682 0.9136309028 -3.099999905
vn 0.9346284866 -0.2554044425 -0.2474634796
v -2.899225712 17.28163719 1.349804401
vn 0.9970138073 0.01223561633 -0.07624834776
v -3.786133289 18.27808189 -3.099999905
vn -0.1410357356 0.9841495156 -0.1075110584
v -3.137249708 13.75 -0.4968911409
vn 0.9884151816 0.05463382229 0.1416000575
v 3.123415709 18.04695702 0.6209343672
vn -0.9805720448 0.1564837396 -0.1182847023
v -4.122108936 18.17064285 3.099999905
vn -0.4752805233 0.8782077432 0.05347547308
v -3.188168526 0.07524943352 3.099999905
vn 0.9790271521 -0.03771690652 0.2002079189
v 2.910989761 17.59959984 -1.326572537
vn -0.9837065935 0.1794409305 0.01105994172
v 2.927093029 17.61879349 1.28796649
vn -0.9756872654 0.06762320548 -0.2084740102
v -4.485367298 17.33169937 3.099999905
vn -0.9874110222 0.002782385098 0.1581508219
v -2.480285168 13.42351913 3.099999905
vn 0.8646072149 0.5021807551 0.01639810018
v -2.849999905 13.75 0.04312202334
vn 0.2854600251 0.9583904147 0.0005829528673
v 3.137249708 13.75 0.4968911409
vn -0.988589406 0.04773068056 -0.1428734213
v 3.152809858 13.75 -0.4993557334
vn -0.9875743985 0.06408557296 0.1434916407
v -2.291303635 12.09772491 3.099999905
vn 0.9817620516 -0.140746519 0.12780343
v -3.02634573 17.92042542 1.022325397
vn 0.9737875462 0.1195559427 -0.193505168
v -1.399621964 -2.857069016 3.099999905
vn 0.4417430758 0.8505896926 0.2852371633
v -3.055383682 -0.9136315584 3.099999905
vn 0.9294684529 0.3292268217 0.1664274037
v -3.199999809 11.5 3.099999905
vn 0.6608387828 -0.2338301092 0.7131729126
v -3.703139305 18.28829956 3.099999905
vn 0.07883471251 0.9923931956 0.0945558548
v 2.794145584 13.68588734 3.099999905
vn -0.544801116 0.1625429243 0.8226612806
v 4.226530075 18.09231186 3.099999905
vn 0.602185905 0.7650578618 0.2281635851
v 3.178619623 18.10586357 -0.2980593741
vn -0.9935210943 0.110338144 0.02722721919
v -2.939654827 17.25139999 3.099999905
vn 0.06907925755 0.01537742279 0.997492671
v -3.025994778 17.92028809 3.099999905
vn 0.8843886256 0.4572957456 0.09347362071
v 2.973592281 17.79719353 -3.099999905
vn -0.914611578 0.3997828066 -0.0604923293
v 2.480285168 13.42351913 -3.099999905
vn -0.8747981191 0.4841212332 -0.01883981004
v -3.152809858 13.75 0.4993557334
vn 0.9900373816 0.05397951603 -0.1300468147
v -2.279480696 12.8125 3.099999905
vn 0.9780884385 0.1190396473 0.1707996279
v 4.485367298 17.33169937 3.099999905
vn 0.9572518468 0.003495019861 0.289234668
v -4.226530075 18.09231186 -3.099999905
vn -0.6769092679 0.7341738343 -0.05275094137
v -3.277891159 18.17064285 3.099999905
vn 0.4300630689 0.8166729808 0.3848259449
v 3.500000238 8.25 3.099999905
vn -0.5646823645 -0.7293578386 0.3862265348
v 2.486496449 11.55103779 -3.099999905
vn -0.3760351837 -0.9261846542 -0.02792049572
v -3.188168526 -0.07524941117 -3.099999905
vn 0.9902598858 0.04353970289 -0.1322483718
v -2.849999905 17.25 3.099999905
vn 0.9995673299 0.01782157272 -0.02339898422
v 2.037919998 3.99963975 -3.099999905
vn 0.4147214592 0.8915534616 -0.1820398271
v 2.976079702 1.124605298 -3.099999905
vn -0.8728747964 -0.3824343979 -0.3030403852
v 4.480040073 -0.3526388109 -3.099999905
vn 0.9710234404 -0.01311391871 -0.2386240959
v -2.037919998 3.99963975 -3.099999905
vn -0.4670676589 0.8347638249 -0.2915769517
v 4.14717865 18.14695549 -3.099999905
vn 0.5888334513 0.799130857 -0.1210995466
v 2.887836695 17.28916931 -3.099999905
vn -0.8778483272 0.01902238466 -0.4785608053
v 2.273011208 12.3362627 3.099999905
vn -0.9936792254 -0.06122123823 0.09409362823
v -3.22611022 3.107256174 -3.099999905
vn 0.6601343751 0.5895441175 -0.4654679298
v -0.6668981314 -4.434747696 3.099999905
vn -0.1148142591 -0.9625443816 0.2456133962
v 1.124605298 2.976080179 -3.099999905
vn -0.4154616594 -0.8823915124 -0.2208548784
v -2.502372742 -1.941039205 -3.099999905
vn 0.7794053555 0.5418901443 -0.3144556284
v 3.277891159 18.17064285 -3.099999905
vn -0.4926324189 0.8651382327 -0.09406959265
v 4.485367298 17.33169937 -3.099999905
vn 0.9880222678 0.0005643835175 -0.1543104649
v 2.991933823 3.340671301 -3.099999905
vn 0.6420096755 0.7536952496 -0.1405950934
v -3.863787651 -2.285037994 3.099999905
vn -0.8244122267 -0.5374809504 0.1773659587
v 4.231228828 -1.486076474 -3.099999905
vn 0.9239282012 -0.3303180933 -0.1929938495
v 3.500000238 2.82626009 -3.099999905
vn -0.9829107523 0.04998546094 -0.1771664619
v -2.757561207 1.601853967 3.099999905
vn 0.8381742835 -0.5372171998 0.0941356644
v -3.082387209 0.8432829976 3.099999905
vn 0.8510383964 -0.2400513291 0.4670213759
v 2.23936367 2.23936367 -3.099999905
vn -0.6923875213 -0.6768617034 -0.2499155104
v 3.199999809 9.5 -3.099999905
vn -0.2966921329 0.9494147897 -0.1028851718
v 2.776267529 3.521942616 3.099999905
vn 0.5952547789 0.7928932309 0.1303536445
v -4.223520279 -1.520562172 -3.099999905
vn -0.9173793793 -0.336207062 -0.2130256295
v 4.443160534 17.77079391 -3.099999905
vn 0.9424660802 0.2858134806 -0.1734022945
v 0.6303332448 4.429323673 -3.099999905
vn 0.0923191011 0.9789454937 -0.1820518374
v -3.500000238 8.25 -3.099999905
vn 0.5725471377 -0.7455615997 -0.3410684168
v 0.9440432191 4.384119987 3.099999905
vn 0.1976840943 0.9639453888 0.1781298518
v -0.5963670015 -3.124683142 -3.099999905
vn 0.1614456326 0.972083807 -0.1702598482
v -2.285037518 -3.863787413 -3.099999905
vn -0.4752578139 -0.8549018502 -0.2080211192
v -3.065362453 -0.8905702829 -3.099999905
vn 0.890887022 0.3274573982 -0.3147887886
v -3.831702709 -2.348007917 -3.099999905
vn -0.8254438639 -0.5238404274 -0.2103180885
v -3.199999809 9.5 -3.099999905
vn 0.2752644718 0.8808463216 -0.3851482868
v 2.285037518 -3.863787413 -3.099999905
vn 0.5330560207 -0.8184447885 -0.214474842
v 2.973592281 17.79719353 3.099999905
vn -0.9030794501 0.4271360338 0.04474736378
v 3.055383682 -0.9136315584 -3.099999905
vn -0.9058181643 0.3624897301 -0.2193048
v -4.480040073 -0.3526388109 3.099999905
vn -0.9708019495 -0.009126316756 0.2397088557
v -4.484662056 17.2689743 -3.099999905
vn -0.9518304467 0.001092058024 -0.3066228926
v -2.915312529 17.54339981 -3.099999905
vn 0.9855480194 0.1685288548 -0.01712120324
v -2.450831175 11.61726284 -3.099999905
vn 0.6683434844 -0.7408521771 -0.06674642116
v -2.606734276 13.57838726 -3.099999905
vn 0.7314968705 0.6817682385 -0.01021555904
v -3.025994778 17.92028809 -3.099999905
vn 0.5883786082 0.3401129842 -0.7335760593
v -2.338889837 13.10452461 -3.099999905
vn 0.9457344413 0.2727909982 -0.1765541881
v -2.939654827 17.25139999 -3.099999905
vn 0.07436732948 0.01655457728 -0.9970934987
v -2.821782351 13.6970253 -3.099999905
vn 0.5205539465 0.1287174821 -0.8440707326
v -3.177603483 18.10507584 0.02751238272
vn 0.9931872487 0.1162295789 0.008354231715
v 3.081069946 -0.7913914919 3.099999905
vn -0.9409476519 0.2512491345 0.2269171774
v 2.279480696 12.8125 -3.099999905
vn -0.9793909788 0.1097384021 -0.1695606112
v -2.915312529 17.54339981 3.099999905
vn 0.9943796396 0.09969159961 0.03564652801
v 3.69686079 18.28829956 -3.099999905
vn -0.05982933566 0.9930310845 -0.1015367284
v -2.257162809 2.257162333 3.099999905
vn 0.6462076306 -0.6462077498 0.4059941769
v 2.306160688 12.04980659 -3.099999905
vn -0.9784538746 -0.1901293546 -0.08049155027
v 3.483654976 2.847335339 3.099999905
vn -0.8738235235 0.2554497421 0.4137364626
v 2.502372742 -1.941039205 3.099999905
vn -0.7952498198 0.5388658047 0.2778514326
v -3.500000238 8.25 3.099999905
vn 0.4984698892 -0.6463680863 0.577698946
v -3.277891159 18.17064285 -3.099999905
vn 0.3760855794 0.9162814021 -0.1377970576
v 1.399621964 -2.857069016 -3.099999905
vn -0.4480671287 0.8716993332 -0.1984340996
v -2.974435091 3.373834848 3.099999905
vn -0.6064083576 0.7695171237 0.2002805769
v 0.07524950057 3.188169003 -3.099999905
vn -0.0678679347 -0.968670845 -0.2388948947
v 2.794145584 13.68588734 -3.099999905
vn -0.6027607918 0.2717766166 -0.7502112389
v -2.273011208 12.3362627 -3.099999905
vn 0.9913375974 -0.1046926305 -0.07930441946
v -2.851130009 -3.447080135 3.099999905
vn -0.630820632 -0.7422249913 0.2262020856
v -3.199999809 11.5 -3.099999905
vn 0.8413082957 -0.2976871431 -0.4512014389
v 2.90118885 17.26923752 1.345267534
vn -0.9997614026 0.008535712957 -0.02010636032
v 4.443160534 17.77079391 3.099999905
vn 0.8866884708 0.4327610731 0.1627924293
v 0.5470243692 -3.134096146 3.099999905
vn -0.1558827013 0.9635208249 0.2175503373
v 4.468982697 -0.4224431217 3.099999905
vn 0.9917750955 -0.01541777793 0.1270609945
v 3.199999809 11.5 -3.099999905
vn -0.6499307752 -0.2260943204 -0.7255834341
v -1.601853609 2.757561445 3.099999905
vn 0.4788756967 -0.8489900827 0.223369509
v 1.52056253 -4.223519802 3.099999905
vn 0.3375410736 -0.9260477424 0.168824181
v -2.794145584 13.68588734 3.099999905
vn 0.5864145756 0.2482842356 0.7710207105
v -1.963428736 2.490963697 -3.099999905
vn 0.6377847195 -0.7445538044 -0.1971554309
v -2.849999905 17.25 -3.099999905
vn 0.9998071194 0.01767089032 0.00857350044
v 3.465068817 -2.820713997 -3.099999905
vn 0.7703461051 -0.6157926321 -0.1654276699
# mm_gid 0
g mmGroup0
f 117//117 1//1 99//99 
f 1//1 117//117 145//145 
f 88//88 108//108 143//143 
f 108//108 88//88 28//28 
f 50//50 154//154 64//64 
f 69//69 41//41 51//51 
f 11//11 69//69 51//51 
f 68//68 78//78 69//69 
f 42//42 51//51 41//41 
f 42//42 41//41 63//63 
f 71//71 83//83 136//136 
f 59//59 136//136 83//83 
f 41//41 69//69 78//78 
f 83//83 71//71 48//48 
f 57//57 48//48 71//71 
f 57//57 71//71 54//54 
f 48//48 67//67 83//83 
f 59//59 67//67 53//53 
f 19//19 59//59 53//53 
f 53//53 55//55 19//19 
f 64//64 68//68 50//50 
f 68//68 64//64 60//60 
f 59//59 19//19 136//136 
f 11//11 50//50 68//68 
f 11//11 68//68 69//69 
f 83//83 67//67 59//59 
f 68//68 60//60 78//78 
f 153//153 31//31 123//123 
f 31//31 153//153 74//74 
f 39//39 112//112 30//30 
f 112//112 39//39 158//158 
f 49//49 153//153 130//130 
f 153//153 49//49 74//74 
f 39//39 89//89 158//158 
f 89//89 39//39 34//34 
f 31//31 112//112 123//123 
f 112//112 31//31 30//30 
f 115//115 85//85 104//104 
f 85//85 115//115 155//155 
f 21//21 96//96 140//140 
f 96//96 21//21 77//77 
f 96//96 155//155 115//115 
f 155//155 96//96 77//77 
f 103//103 78//78 36//36 
f 36//36 78//78 60//60 
f 36//36 140//140 103//103 
f 140//140 36//36 21//21 
f 35//35 64//64 154//154 
f 125//125 64//64 35//35 
f 63//63 81//81 97//97 
f 64//64 125//125 60//60 
f 81//81 63//63 41//41 
f 36//36 60//60 125//125 
f 103//103 41//41 78//78 
f 41//41 103//103 81//81 
f 63//63 97//97 42//42 
f 136//136 146//146 87//87 
f 80//80 54//54 71//71 
f 54//54 80//80 139//139 
f 132//132 19//19 129//129 
f 54//54 139//139 57//57 
f 75//75 146//146 58//58 
f 146//146 75//75 87//87 
f 55//55 129//129 19//19 
f 52//52 27//27 65//65 
f 128//128 65//65 27//27 
f 27//27 52//52 86//86 
f 61//61 58//58 86//86 
f 58//58 61//61 75//75 
f 79//79 57//57 139//139 
f 55//55 134//134 129//129 
f 87//87 71//71 136//136 
f 71//71 87//87 80//80 
f 146//146 19//19 132//132 
f 19//19 146//146 136//136 
f 61//61 86//86 52//52 
f 104//104 157//157 94//94 
f 157//157 104//104 85//85 
f 65//65 6//6 127//127 
f 6//6 65//65 128//128 
f 57//57 79//79 91//91 
f 134//134 55//55 163//163 
f 88//88 117//117 28//28 
f 117//117 88//88 145//145 
f 70//70 151//151 84//84 
f 131//131 66//66 133//133 
f 133//133 84//84 151//151 
f 151//151 49//49 130//130 
f 49//49 151//151 70//70 
f 84//84 133//133 66//66 
f 131//131 161//161 66//66 
f 161//161 131//131 135//135 
f 89//89 34//34 142//142 
f 142//142 98//98 138//138 
f 33//33 138//138 98//98 
f 32//32 82//82 33//33 
f 32//32 150//150 82//82 
f 150//150 32//32 76//76 
f 98//98 142//142 34//34 
f 138//138 33//33 82//82 
f 50//50 76//76 35//35 
f 50//50 35//35 154//154 
f 150//150 51//51 97//97 
f 11//11 76//76 50//50 
f 76//76 11//11 150//150 
f 150//150 11//11 51//51 
f 97//97 51//51 42//42 
f 67//67 135//135 53//53 
f 53//53 135//135 163//163 
f 53//53 163//163 55//55 
f 161//161 48//48 91//91 
f 135//135 67//67 161//161 
f 161//161 67//67 48//48 
f 91//91 48//48 57//57 
f 156//156 147//147 26//26 
f 137//137 126//126 144//144 
f 22//22 93//93 18//18 
f 15//15 149//149 101//101 
f 149//149 15//15 14//14 
f 9//9 25//25 147//147 
f 25//25 9//9 144//144 
f 147//147 156//156 9//9 
f 156//156 26//26 119//119 
f 25//25 144//144 126//126 
f 17//17 29//29 137//137 
f 93//93 22//22 111//111 
f 20//20 111//111 22//22 
f 121//121 73//73 102//102 
f 43//43 45//45 102//102 
f 45//45 43//43 72//72 
f 119//119 72//72 10//10 
f 119//119 10//10 156//156 
f 56//56 62//62 90//90 
f 62//62 56//56 110//110 
f 12//12 109//109 56//56 
f 162//162 109//109 12//12 
f 109//109 162//162 141//141 
f 13//13 16//16 159//159 
f 14//14 13//13 149//149 
f 13//13 14//14 16//16 
f 126//126 137//137 29//29 
f 20//20 101//101 111//111 
f 18//18 29//29 17//17 
f 29//29 18//18 93//93 
f 43//43 102//102 73//73 
f 90//90 73//73 121//121 
f 73//73 90//90 62//62 
f 72//72 119//119 45//45 
f 110//110 56//56 109//109 
f 159//159 162//162 13//13 
f 101//101 20//20 15//15 
f 162//162 159//159 141//141 
f 113//113 105//105 92//92 
f 92//92 40//40 113//113 
f 118//118 92//92 116//116 
f 92//92 118//118 40//40 
f 124//124 3//3 160//160 
f 65//65 79//79 87//87 
f 79//79 65//65 161//161 
f 87//87 79//79 80//80 
f 84//84 161//161 74//74 
f 70//70 74//74 49//49 
f 161//161 84//84 66//66 
f 84//84 74//74 70//70 
f 145//145 127//127 1//1 
f 62//62 127//127 8//8 
f 127//127 145//145 65//65 
f 65//65 61//61 52//52 
f 73//73 8//8 106//106 
f 65//65 75//75 61//61 
f 43//43 106//106 152//152 
f 74//74 145//145 31//31 
f 110//110 127//127 62//62 
f 8//8 73//73 62//62 
f 106//106 43//43 73//73 
f 72//72 152//152 47//47 
f 152//152 72//72 43//43 
f 72//72 47//47 100//100 
f 100//100 10//10 72//72 
f 10//10 100//100 156//156 
f 156//156 100//100 24//24 
f 160//160 156//156 24//24 
f 156//156 160//160 9//9 
f 3//3 9//9 160//160 
f 9//9 3//3 144//144 
f 4//4 144//144 3//3 
f 23//23 144//144 4//4 
f 144//144 23//23 137//137 
f 65//65 87//87 75//75 
f 145//145 74//74 65//65 
f 161//161 65//65 74//74 
f 31//31 145//145 88//88 
f 31//31 88//88 30//30 
f 30//30 88//88 39//39 
f 85//85 39//39 88//88 
f 34//34 39//39 98//98 
f 39//39 33//33 98//98 
f 76//76 33//33 39//39 
f 76//76 32//32 33//33 
f 85//85 76//76 39//39 
f 85//85 35//35 76//76 
f 35//35 36//36 125//125 
f 35//35 21//21 36//36 
f 127//127 110//110 1//1 
f 109//109 1//1 110//110 
f 141//141 1//1 109//109 
f 1//1 141//141 148//148 
f 148//148 141//141 46//46 
f 159//159 46//46 141//141 
f 46//46 159//159 5//5 
f 16//16 5//5 159//159 
f 5//5 16//16 14//14 
f 5//5 14//14 118//118 
f 118//118 14//14 15//15 
f 40//40 15//15 20//20 
f 15//15 40//40 118//118 
f 20//20 113//113 40//40 
f 143//143 20//20 22//22 
f 143//143 22//22 18//18 
f 20//20 143//143 113//113 
f 157//157 137//137 23//23 
f 137//137 157//157 17//17 
f 35//35 77//77 21//21 
f 17//17 157//157 18//18 
f 35//35 155//155 77//77 
f 18//18 157//157 143//143 
f 35//35 85//85 155//155 
f 143//143 157//157 88//88 
f 88//88 157//157 85//85 
f 91//91 79//79 161//161 
f 79//79 139//139 80//80 
f 160//160 44//44 124//124 
f 82//82 150//150 138//138 
f 158//158 89//89 142//142 
f 138//138 158//158 142//142 
f 138//138 150//150 158//158 
f 103//103 97//97 81//81 
f 86//86 128//128 27//27 
f 121//121 6//6 90//90 
f 58//58 128//128 86//86 
f 6//6 121//121 114//114 
f 117//117 6//6 128//128 
f 56//56 6//6 99//99 
f 146//146 128//128 58//58 
f 6//6 117//117 99//99 
f 6//6 56//56 90//90 
f 99//99 12//12 56//56 
f 162//162 99//99 95//95 
f 99//99 162//162 12//12 
f 13//13 95//95 7//7 
f 95//95 13//13 162//162 
f 13//13 7//7 149//149 
f 149//149 7//7 116//116 
f 149//149 116//116 101//101 
f 92//92 101//101 116//116 
f 101//101 92//92 111//111 
f 105//105 111//111 92//92 
f 108//108 111//111 105//105 
f 111//111 108//108 93//93 
f 94//94 93//93 108//108 
f 153//153 117//117 128//128 
f 117//117 123//123 28//28 
f 117//117 153//153 123//123 
f 28//28 123//123 112//112 
f 158//158 28//28 112//112 
f 140//140 97//97 103//103 
f 102//102 114//114 121//121 
f 114//114 102//102 122//122 
f 122//122 102//102 2//2 
f 2//2 102//102 120//120 
f 45//45 120//120 102//102 
f 120//120 45//45 38//38 
f 119//119 38//38 45//45 
f 38//38 119//119 37//37 
f 37//37 119//119 26//26 
f 44//44 26//26 147//147 
f 26//26 44//44 37//37 
f 147//147 124//124 44//44 
f 124//124 147//147 25//25 
f 25//25 164//164 124//124 
f 164//164 25//25 126//126 
f 107//107 126//126 29//29 
f 94//94 29//29 93//93 
f 94//94 108//108 28//28 
f 96//96 97//97 140//140 
f 126//126 107//107 164//164 
f 115//115 97//97 96//96 
f 104//104 97//97 115//115 
f 97//97 104//104 150//150 
f 29//29 94//94 107//107 
f 150//150 104//104 158//158 
f 158//158 104//104 28//28 
f 94//94 28//28 104//104 
f 129//129 134//134 132//132 
f 128//128 135//135 153//153 
f 132//132 128//128 146//146 
f 134//134 128//128 132//132 
f 128//128 134//134 135//135 
f 135//135 134//134 163//163 
f 133//133 135//135 131//131 
f 153//153 151//151 130//130 
f 135//135 133//133 153//153 
f 151//151 153//153 133//133 
f 37//37 24//24 100//100 
f 160//160 37//37 44//44 
f 37//37 160//160 24//24 
f 107//107 23//23 164//164 
f 4//4 164//164 23//23 
f 23//23 107//107 157//157 
f 94//94 157//157 107//107 
f 105//105 143//143 108//108 
f 143//143 105//105 113//113 
f 116//116 5//5 118//118 
f 106//106 2//2 152//152 
f 2//2 106//106 122//122 
f 8//8 114//114 106//106 
f 114//114 8//8 6//6 
f 120//120 47//47 152//152 
f 47//47 120//120 38//38 
f 100//100 38//38 37//37 
f 99//99 148//148 46//46 
f 46//46 7//7 95//95 
f 7//7 46//46 5//5 
f 3//3 124//124 164//164 
f 5//5 116//116 7//7 
f 122//122 106//106 114//114 
f 152//152 2//2 120//120 
f 38//38 100//100 47//47 
f 148//148 99//99 1//1 
f 46//46 95//95 99//99 
f 3//3 164//164 4//4 
f 127//127 6//6 8//8 
